<?xml version="1.0" encoding="iso-8859-1"?>
<!-- Generator: Adobe Illustrator 19.0.0, SVG Export Plug-In . SVG Version: 6.00 Build 0)  -->
<svg version="1.1" id="Layer_1" xmlns="http://www.w3.org/2000/svg" xmlns:xlink="http://www.w3.org/1999/xlink" x="0px" y="0px"
	 viewBox="0 0 512 512" style="enable-background:new 0 0 512 512;" xml:space="preserve">
<g>
	<g>
		<g>
			<path d="M503.467,85.333h-435.2v-8.713c10.633-8.013,17.067-20.617,17.067-33.954C85.333,19.14,66.193,0,42.667,0
				C19.14,0,0,19.14,0,42.667c0,13.338,6.434,25.941,17.067,33.954V486.4c0,4.71,3.823,8.533,8.533,8.533
				c4.71,0,8.533-3.823,8.533-8.533V72.064c0-3.038-1.613-5.845-4.241-7.373c-8.03-4.676-12.826-12.911-12.826-22.025
				c0-14.114,11.486-25.6,25.6-25.6s25.6,11.486,25.6,25.6c0,9.114-4.796,17.348-12.826,22.025
				c-2.628,1.527-4.241,4.335-4.241,7.373v21.803c0,4.71,3.823,8.533,8.533,8.533h435.2v290.133H93.867
				c-4.71,0-8.533,3.823-8.533,8.533s3.823,8.533,8.533,8.533h409.6c4.719,0,8.533-3.823,8.533-8.533v-307.2
				C512,89.156,508.186,85.333,503.467,85.333z"/>
			<path d="M59.733,120.175c-4.71,0-8.533,3.823-8.533,8.533v374.758c0,4.71,3.823,8.533,8.533,8.533s8.533-3.823,8.533-8.533
				V128.708C68.267,123.998,64.444,120.175,59.733,120.175z"/>
			<path d="M170.428,257.903c-7.799,4.497-13.38,11.767-15.71,20.471c-2.33,8.695-1.126,17.775,3.371,25.574
				c2.961,5.12,7.219,9.318,12.339,12.254c-0.026,5.905,1.493,11.691,4.446,16.802c5.999,10.402,17.195,16.862,29.21,16.862
				c5.879,0,11.708-1.562,16.828-4.514c7.799-4.506,13.38-11.776,15.701-20.471c1.587-5.879,1.544-11.93-0.034-17.647l53.555-30.925
				l53.564,30.925c-3.942,14.43,2.116,30.302,15.659,38.118c5.205,2.995,10.957,4.523,16.802,4.523c2.927,0,5.871-0.384,8.781-1.16
				c8.704-2.338,15.966-7.91,20.454-15.71c2.961-5.111,4.471-10.906,4.446-16.811c5.12-2.927,9.387-7.125,12.348-12.245
				c9.293-16.102,3.755-36.753-12.339-46.046c-7.808-4.506-16.879-5.7-25.583-3.371c-5.879,1.579-11.11,4.634-15.266,8.858
				l-28.237-16.307l28.262-16.316c6.263,6.315,14.891,10.018,24.004,10.018c5.88,0,11.708-1.562,16.819-4.523
				c16.094-9.293,21.641-29.943,12.339-46.054c-2.97-5.111-7.228-9.31-12.348-12.237c0.026-5.896-1.485-11.691-4.429-16.811
				c-5.999-10.394-17.203-16.862-29.218-16.862c-5.879,0-11.708,1.562-16.828,4.514c-7.799,4.506-13.372,11.776-15.71,20.463
				c-1.57,5.879-1.536,11.938,0.034,17.655l-53.555,30.925l-53.564-30.925c3.942-14.43-2.116-30.293-15.667-38.118
				c-7.799-4.497-16.879-5.7-25.574-3.362c-8.695,2.338-15.966,7.919-20.454,15.71c-2.961,5.12-4.471,10.914-4.454,16.811
				c-5.111,2.927-9.378,7.125-12.339,12.245c-9.293,16.102-3.755,36.762,12.339,46.046c7.791,4.497,16.87,5.692,25.583,3.371
				c5.879-1.579,11.102-4.634,15.258-8.858l28.245,16.307l-28.262,16.316C200.934,252.996,183.45,250.377,170.428,257.903z
				 M366.925,281.899c1.954,1.126,4.292,1.434,6.477,0.853c2.193-0.589,4.053-2.022,5.18-3.985
				c2.219-3.849,5.811-6.596,10.103-7.748c4.318-1.152,8.789-0.555,12.629,1.664c7.945,4.582,10.667,14.78,6.093,22.733
				c-2.594,4.471-6.494,6.494-9.31,7.407c-4.156,1.357-6.622,5.632-5.709,9.907c0.623,2.884,0.811,7.27-1.775,11.742
				c-2.21,3.857-5.794,6.605-10.095,7.757c-4.284,1.152-8.764,0.563-12.629-1.664c-7.945-4.582-10.684-14.78-6.093-22.733
				c2.364-4.079,0.964-9.301-3.123-11.657L307.2,266.462l16.495-9.523L366.925,281.899z M213.342,212.267
				c-1.963-1.135-4.301-1.442-6.477-0.853c-2.185,0.589-4.053,2.022-5.18,3.985c-2.219,3.849-5.811,6.596-10.104,7.748
				c-4.292,1.169-8.781,0.563-12.629-1.664c-7.945-4.582-10.675-14.78-6.093-22.733c2.586-4.463,6.485-6.494,9.301-7.407
				c4.156-1.348,6.622-5.623,5.709-9.89c-0.614-2.901-0.811-7.279,1.783-11.759c2.219-3.849,5.803-6.605,10.095-7.757
				c4.284-1.161,8.772-0.563,12.629,1.664c7.945,4.582,10.675,14.788,6.093,22.733c-2.355,4.079-0.956,9.301,3.123,11.657
				l51.465,29.722l-16.486,9.515L213.342,212.267z M358.673,197.99c4.087-2.364,5.487-7.578,3.123-11.665
				c-2.219-3.84-2.807-8.328-1.655-12.621c1.152-4.301,3.908-7.885,7.757-10.103c7.706-4.463,18.33-1.553,22.724,6.084
				c2.586,4.48,2.389,8.858,1.766,11.75c-0.913,4.284,1.553,8.559,5.709,9.907c2.816,0.913,6.716,2.944,9.31,7.407
				c4.582,7.953,1.852,18.142-6.093,22.741c-7.731,4.446-18.313,1.536-22.733-6.101c-2.364-4.079-7.595-5.47-11.657-3.123
				l-145.331,83.908c-1.963,1.135-3.396,3.004-3.977,5.188c-0.589,2.185-0.282,4.514,0.853,6.477
				c2.219,3.849,2.816,8.328,1.664,12.621c-1.152,4.301-3.908,7.885-7.748,10.103c-7.723,4.463-18.313,1.562-22.733-6.101
				c-2.586-4.454-2.389-8.849-1.775-11.75c0.905-4.275-1.562-8.533-5.717-9.89c-2.807-0.913-6.707-2.935-9.293-7.415
				c-2.219-3.849-2.816-8.328-1.664-12.621c1.152-4.292,3.9-7.885,7.757-10.103c2.526-1.459,5.393-2.236,8.294-2.236
				c5.939,0,11.469,3.191,14.43,8.32c1.126,1.963,2.995,3.388,5.18,3.977c2.176,0.589,4.514,0.282,6.477-0.845L358.673,197.99z"/>
		</g>
	</g>
</g>
<g>
</g>
<g>
</g>
<g>
</g>
<g>
</g>
<g>
</g>
<g>
</g>
<g>
</g>
<g>
</g>
<g>
</g>
<g>
</g>
<g>
</g>
<g>
</g>
<g>
</g>
<g>
</g>
<g>
</g>
</svg>
